<?xml version="1.0" encoding="utf-8"?>
<!-- Generator: Adobe Illustrator 21.0.1, SVG Export Plug-In . SVG Version: 6.00 Build 0)  -->
<svg version="1.1" id="Слой_1" xmlns="http://www.w3.org/2000/svg" xmlns:xlink="http://www.w3.org/1999/xlink" x="0px" y="0px"
	 viewBox="0 0 763.1 331.5" style="enable-background:new 0 0 763.1 331.5;" xml:space="preserve">
<style type="text/css">
	.st0{fill-rule:evenodd;clip-rule:evenodd;fill:#FFFFFF;}
	.st1{fill:#FFFFFF;}
</style>
<g>
	<path class="st0" d="M291.8,204.6c0.7,0.3,1.3,0.8,1.6,1.5l4.5,10.1c0.2,0.5,0.2,1-0.1,1.3c-0.3,0.4-0.7,0.6-1.2,0.6H80.9
		c-0.3,0-0.5-0.2-0.6-0.4c-0.1-0.3,0-0.5,0.3-0.6c47.1-25.5,104.6-35.6,164.9-24.9C261.5,195.1,277,199.3,291.8,204.6 M193.4,133.9
		c-63.7-13.7-125-4.3-175,22.4c-0.8,0.4-1.1,1.5-0.8,2.4l17.8,40.6c0.2,0.4,0.5,0.6,0.8,0.8c0.4,0.1,0.8,0.1,1.1-0.1
		c49.4-29.5,111.1-41.8,176.1-30.2c25.4,4.5,49.5,12.3,72,22.9c0.4,0.2,0.8,0.1,1.1-0.2c0.3-0.3,0.4-0.7,0.2-1.2l-10.8-24.5
		c-0.5-1.1-1.3-1.9-2.3-2.5C249.2,150.5,222.2,140.1,193.4,133.9z M247.7,105.8c0.3,0.2,0.7,0.3,1,0c0.3-0.2,0.4-0.6,0.2-1
		l-25.7-58.4c-0.2-0.3-0.4-0.6-0.8-0.8c-0.3-0.1-0.7-0.2-1,0l-44.1,17c-0.3,0.1-0.6,0.5-0.5,0.9c0,0.4,0.3,0.7,0.6,0.9
		C202.9,75.1,226.5,89.1,247.7,105.8z M151.6,73.5c-0.9-0.2-1.9-0.1-2.8,0.2L70.7,104c-0.4,0.2-0.5,0.6-0.4,1
		c0.1,0.4,0.5,0.7,0.9,0.6c30-4,61.8-3,94.1,4c38.2,8.2,73.3,23.8,104.1,44.8c0.2,0.2,0.5,0.2,0.8,0c0.2-0.2,0.3-0.5,0.2-0.8
		l-16.2-36.9c-0.4-0.8-0.9-1.5-1.7-2C222.3,95.1,188.3,80.8,151.6,73.5z"/>
	<path class="st1" d="M355.5,75.4c-1.8-2.2-4.1-3.8-7.1-4.6c2.5-0.9,4.5-2.3,5.9-4.2c1.5-2.1,2.3-4.6,2.3-7.4c0-4.6-1.6-8-4.8-10.3
		c-3.2-2.3-8-3.4-14.3-3.4h-18.2V100H337c7.1,0,12.4-1.3,16-4c3.6-2.7,5.4-6.8,5.4-12.2C358.3,80.7,357.4,77.8,355.5,75.4
		 M327.1,74.5h7.9c5.9,0,10.1,0.8,12.2,2.4c2.2,1.6,3.3,4,3.3,7.1c0,3.1-1.1,5.4-3.3,7c-2.2,1.6-6.3,2.4-12.2,2.4h-7.9V74.5z
		 M345.7,65.7c-2.1,1.5-6.4,2.3-12.7,2.3h-5.9V52h8c2.8,0,5.1,0.1,7,0.4c1.8,0.2,3.4,0.9,4.8,2c1.3,1.1,2,2.7,2,5
		C348.8,62.1,347.8,64.3,345.7,65.7z"/>
	<rect x="369.3" y="45.5" class="st1" width="7.8" height="54.6"/>
	<polygon class="st1" points="423.6,93.4 398.9,93.4 398.9,45.5 391.1,45.5 391.1,100 428.8,100 	"/>
	<polygon class="st1" points="468.6,93.4 443.9,93.4 443.9,45.5 436.1,45.5 436.1,100 473.8,100 	"/>
	<path class="st1" d="M517.4,75.4c-1.7-2.2-4.1-3.8-7.1-4.6c2.5-0.9,4.5-2.3,5.9-4.2c1.5-2.1,2.3-4.6,2.3-7.4c0-4.6-1.6-8-4.8-10.3
		c-3.2-2.3-8-3.4-14.3-3.4h-18.2V100h17.8c7.1,0,12.4-1.3,16-4c3.6-2.7,5.4-6.8,5.4-12.2C520.2,80.7,519.2,77.8,517.4,75.4
		 M488.9,74.5h7.9c5.9,0,10,0.8,12.3,2.4c2.2,1.6,3.3,4,3.3,7.1c0,3.1-1.1,5.4-3.3,7c-2.2,1.6-6.3,2.4-12.2,2.4h-7.9V74.5z
		 M507.5,65.7c-2.1,1.5-6.4,2.3-12.7,2.3h-5.9V52h8c2.8,0,5.1,0.1,7,0.4c1.8,0.2,3.4,0.9,4.8,2c1.3,1.1,2,2.7,2,5
		C510.7,62.1,509.6,64.3,507.5,65.7z"/>
	<path class="st1" d="M575.9,52.7c-5.6-5.5-12.4-8.3-20.2-8.3c-5,0-9.8,1.3-14.2,3.8c-4.4,2.5-7.9,6-10.5,10.3
		c-2.5,4.4-3.8,9.1-3.8,14.2c0,7.8,2.8,14.5,8.4,20c5.6,5.5,12.3,8.4,20.1,8.4c7.9,0,14.7-2.8,20.2-8.3c5.6-5.5,8.4-12.3,8.4-20.1
		C584.3,64.9,581.5,58.2,575.9,52.7 M555.7,93.9c-5.7,0-10.5-2.1-14.4-6.2c-3.9-4.1-5.8-9.2-5.8-15c0-5.8,1.9-10.8,5.8-14.9
		c3.9-4.1,8.7-6.2,14.4-6.2c5.7,0,10.6,2.1,14.5,6.1c3.9,4.1,5.8,9.1,5.8,14.9c0,5.8-2,10.9-5.9,15
		C566.3,91.8,561.4,93.9,555.7,93.9z"/>
	<path class="st1" d="M614.2,44.5l-0.1-0.1h-2l-26.6,55.3l-0.1,0.3h8.3l6.2-13.2H626l6.2,13.1l0.1,0.1h8.5L614.2,44.5z M623,80.3
		h-20l9.9-21.1L623,80.3z"/>
	<path class="st1" d="M673.3,77.3c3.8-1.1,6.8-3.1,8.9-5.9c2.2-2.9,3.3-6.3,3.3-10.2c0-5.1-1.8-9.1-5.4-11.7c-3.6-2.7-8.7-4-15.3-4
		h-16.5V100h7.8V79h9l15.2,21l0.1,0.1h9.6L673.3,77.3z M656.1,52.1h6.1c6,0,10.2,0.8,12.3,2.4c2.1,1.6,3.2,4,3.2,7.1
		c0,3.5-1.3,6.2-3.9,8c-2.6,1.8-6.9,2.7-12.8,2.7h-4.8V52.1z"/>
	<path class="st1" d="M737.1,53c-5.6-5-12.9-7.5-21.5-7.5h-18V100h18.2c8.6,0,15.8-2.5,21.3-7.5c5.6-5,8.4-11.6,8.4-19.8
		C745.6,64.6,742.7,57.9,737.1,53 M705.5,52.1h9c6.8,0,12.3,1.9,16.5,5.5c4.2,3.7,6.3,8.7,6.3,15c0,6.5-2.1,11.6-6.2,15.2
		c-4.1,3.6-9.7,5.5-16.6,5.5h-9V52.1z"/>
	<polygon class="st1" points="417.4,119.3 372.8,220.6 363.9,220.6 319.2,119.3 340.8,119.3 368.8,185.2 397,119.3 	"/>
	<rect x="427.3" y="119.3" class="st1" width="20" height="99.3"/>
	<path class="st1" d="M467.6,119.3h34.3c16,0,29.1,4.6,39.2,13.8c10.1,9.2,15.2,21.1,15.2,35.8c0,14.7-5,26.6-15.1,35.9
		c-10.1,9.2-23.1,13.9-39.2,13.9h-34.5V119.3z M487.6,201.2h11.2c11.8,0,20.9-2.8,27.4-8.4c6.4-5.6,9.7-13.6,9.7-23.9
		c0-10.4-3.2-18.4-9.5-23.9c-6.3-5.5-15.5-8.3-27.5-8.3h-11.2V201.2z"/>
	<polygon class="st1" points="637.9,218.6 570.6,218.6 570.6,119.3 636.7,119.3 626.5,136.7 590.5,136.7 590.5,159.3 623.2,159.3 
		623.2,176.7 590.5,176.7 590.5,201.2 627.8,201.2 	"/>
	<path class="st1" d="M693,117.4c14.7,0,27.1,5,37.2,14.9c10.1,9.9,15.2,22.1,15.2,36.6c0,14.6-5,26.8-15.1,36.8
		c-10.1,9.9-22.5,14.9-37.3,14.9c-14.7,0-27.1-5-37.2-14.9c-10.1-10-15.2-22.2-15.2-36.7c0-14.5,5.1-26.7,15.2-36.6
		C665.9,122.4,678.3,117.4,693,117.4 M693,202.6c9.4,0,17.1-3.2,23-9.6c5.9-6.4,8.9-14.4,8.9-24.1c0-9.6-3-17.6-8.9-24
		c-5.9-6.4-13.6-9.6-23-9.6c-9.4,0-17,3.2-23,9.6c-6,6.4-8.9,14.4-8.9,24c0,9.6,2.9,17.6,8.8,24C675.8,199.4,683.5,202.6,693,202.6z
		"/>
	<polygon class="st1" points="716.8,286.4 742.3,286.4 742.3,281.9 721.9,281.9 721.9,269 740.4,269 740.4,264.8 721.9,264.8 
		721.9,250.2 742.3,250.2 742.3,245.7 716.8,245.7 	"/>
	<path class="st1" d="M643.8,250.2c3.7,0,6.3,0.9,8,2.4c2.1,1.8,2.9,4.3,2.9,7.2c0,2.9-0.8,5.5-2.9,7.3c-1.7,1.6-4.3,2.5-8,2.5h-6.9
		v-19.5H643.8z M631.8,286.4h5.1v-12.5h6l1.9,0l2.6-0.2l9.2,12.8h5.7l-10.5-13.8l1.4-0.7c2.4-1.1,4.2-2.7,5.3-4.7
		c1.2-2.1,1.8-4.6,1.8-7.4c0-4.3-1.4-7.9-4.2-10.4c-2.6-2.4-6.6-3.7-11.8-3.7h-12.6V286.4z"/>
	<path class="st1" d="M539.4,266.1c0-4.8,1.7-9,4.6-12c2.9-3,6.9-4.8,11.6-4.8c4.7,0,8.7,1.8,11.6,4.8c2.9,3,4.6,7.2,4.6,12
		c0,4.7-1.8,8.9-4.6,11.9c-2.9,3-7,4.9-11.5,4.9c-4.5,0-8.6-1.9-11.5-4.9C541.2,275,539.4,270.8,539.4,266.1 M533.7,266
		c0,6,2.3,11.3,6.2,15c3.9,3.8,9.3,6,15.6,6c6.3,0,11.7-2.3,15.6-6c3.9-3.8,6.2-9,6.2-15c0-6.1-2.3-11.4-6.1-15.1
		c-3.9-3.7-9.3-6-15.7-6c-6.1,0-11.6,2.3-15.5,6.1C536.1,254.9,533.7,260.1,533.7,266z"/>
	<path class="st1" d="M462.6,250.2c3.7,0,6.3,0.9,8,2.4c2.1,1.8,2.9,4.3,2.9,7.2c0,2.9-0.8,5.5-2.9,7.3c-1.7,1.6-4.3,2.5-8,2.5h-6.3
		v-19.5H462.6z M461.7,273.8c5.9,0,10.2-1.3,13.1-3.7c3-2.4,4.4-6.1,4.4-10.4c0-4.3-1.4-7.9-4.2-10.4c-2.6-2.4-6.6-3.7-11.8-3.7
		h-11.9v40.7h5.1v-12.5H461.7z"/>
	<path class="st1" d="M378.7,257.6l7.4,16.7h-17.1l8.5-19.3L378.7,257.6z M368.2,277.8h19.4l3.8,8.6h5.3l-19.1-41h-0.1l-19.1,41h5.1
		l3.8-8.6H368.2z"/>
	<path class="st1" d="M287.1,266.3v4.3h12.1v9.9l-0.8,0.3c-1.4,0.5-3.1,1-5,1.3c-1.6,0.3-3.4,0.5-5.2,0.5c-4.8,0-9.1-1.7-12.1-4.6
		c-3-2.9-4.8-7-4.8-11.7c0-4.9,1.8-9.1,4.9-12c3-2.8,7.4-4.5,12.7-4.5c4.4,0,8.6,1.5,10.6,2.4l1.7-4.2c-1.9-0.9-6.7-2.8-13.6-2.8
		c-6.1,0-11.6,2.3-15.6,6.2c-3.9,3.8-6.4,9-6.4,14.9c0,6.1,2.3,11.4,6.4,15.2c4,3.7,9.7,5.9,16.6,5.9c8.2,0,13.8-3.2,15.4-4.3v-16.6
		H287.1z"/>
	<polygon class="st1" points="176.7,286.4 181.8,286.4 181.8,257.8 210.7,286.7 210.9,286.7 210.9,245.7 205.9,245.7 205.9,275.2 
		177.3,245.5 176.7,245.5 	"/>
	<rect x="117.2" y="245.7" class="st1" width="5.1" height="40.7"/>
	<path class="st1" d="M62.7,276c0-2.5-0.6-4.6-2.3-6.5c-1.8-2-4.7-3.8-9.3-5.5c-3.2-1.1-5.4-2.2-6.8-3.3c-1.7-1.3-2.4-2.8-2.4-4.6
		c0-2,0.7-3.8,2.3-5c1.3-1.1,3.2-1.8,5.7-1.8c1.6,0,3.4,0.3,5,0.8c1.4,0.4,2.8,1,4,1.5l1.6-4.3c-1.2-0.6-2.7-1.1-4.3-1.5
		c-1.9-0.5-3.9-0.7-6-0.7c-4.1,0-7.3,1.2-9.5,3.2c-2.4,2.1-3.7,5-3.7,8.1c0,2.3,0.6,4.3,2.2,6.1c1.6,1.9,4.3,3.5,8.3,5
		c4.1,1.5,6.5,2.7,8,4c1.7,1.4,2.2,2.9,2.2,4.7c0,1.9-0.8,3.7-2.6,4.9c-1.4,1-3.5,1.7-6.1,1.7c-2,0-4.2-0.4-6.3-1.1
		c-1.6-0.5-3.3-1.3-4.8-2.2l-1.7,4.4c1.7,1,3.7,1.8,5.7,2.4c2.2,0.6,4.5,1,6.8,1c4.5,0,8.1-1.1,10.6-3
		C61.4,282.2,62.7,279.4,62.7,276"/>
</g>
</svg>
